<svg width="18" height="22" viewBox="0 0 18 22" fill="none" xmlns="http://www.w3.org/2000/svg">
<path d="M5 2V16H16V2.5C16 2.22386 15.7761 2 15.5 2H5ZM4 2H3.5C2.67157 2 2 2.67157 2 3.5V16.4998C2.41783 16.186 2.9372 16 3.5 16H4V2ZM1.15121 19.3583C1.05793 19.2674 1 19.1405 1 19V3.5C1 2.11929 2.11929 1 3.5 1H15.5C16.3284 1 17 1.67157 17 2.5V19.5C17 20.3284 16.3284 21 15.5 21H3.5C2.42082 21 1.50135 20.3162 1.15121 19.3583ZM16 17H3.5C2.67157 17 2 17.6716 2 18.5C2 19.3284 2.67157 20 3.5 20H15.5C15.7761 20 16 19.7761 16 19.5V17ZM7.5 9C7.22386 9 7 8.77614 7 8.5C7 8.22386 7.22386 8 7.5 8H13.5C13.7761 8 14 8.22386 14 8.5C14 8.77614 13.7761 9 13.5 9H7.5ZM7.5 7C7.22386 7 7 6.77614 7 6.5C7 6.22386 7.22386 6 7.5 6H11.5C11.7761 6 12 6.22386 12 6.5C12 6.77614 11.7761 7 11.5 7H7.5Z" fill="#82849F" stroke="#82849F" stroke-width="0.4"/>
</svg>
