<svg width="40" height="40" viewBox="0 0 40 40" fill="none" xmlns="http://www.w3.org/2000/svg">
<path d="M17.8675 37.9522H6.65403C4.08062 37.9522 2 35.8657 2 33.2974V25.6801C2 20.7077 6.02984 16.6773 11.0014 16.6773H13.531C18.5026 16.6773 22.5325 20.7077 22.5325 25.6801V33.2974C22.527 35.8657 20.4409 37.9522 17.8675 37.9522Z" stroke="#04093F" stroke-width="3" stroke-miterlimit="10" stroke-linecap="round" stroke-linejoin="round"/>
<path d="M33.34 37.9522H27.1091C24.5357 37.9522 22.4551 35.8657 22.4551 33.2974V24.0427C22.4551 19.9739 25.7512 16.6773 29.8194 16.6773H30.6352C34.7034 16.6773 37.9995 19.9739 37.9995 24.0427V33.2974C37.9941 35.8657 35.908 37.9522 33.34 37.9522Z" stroke="#04093F" stroke-width="3" stroke-miterlimit="10" stroke-linecap="round" stroke-linejoin="round"/>
<path d="M11.817 13.4083C14.9801 13.4083 17.5442 10.8437 17.5442 7.68021C17.5442 4.51669 14.9801 1.95215 11.817 1.95215C8.65399 1.95215 6.08984 4.51669 6.08984 7.68021C6.08984 10.8437 8.65399 13.4083 11.817 13.4083Z" stroke="#04093F" stroke-width="3" stroke-miterlimit="10" stroke-linecap="round" stroke-linejoin="round"/>
<path d="M30.2248 13.359C33.3606 13.359 35.9027 10.8165 35.9027 7.68024C35.9027 4.54394 33.3606 2.00146 30.2248 2.00146C27.089 2.00146 24.5469 4.54394 24.5469 7.68024C24.5469 10.8165 27.089 13.359 30.2248 13.359Z" stroke="#04093F" stroke-width="3" stroke-miterlimit="10" stroke-linecap="round" stroke-linejoin="round"/>
</svg>
