<svg width="37" height="40" viewBox="0 0 37 40" fill="none" xmlns="http://www.w3.org/2000/svg">
<path d="M34.7328 26.8755V13.0288C34.7328 11.5444 33.9276 10.1696 32.624 9.43013L20.4752 2.50673C19.1715 1.76729 17.5667 1.76729 16.2631 2.50673L4.10879 9.43013C2.80517 10.1696 2 11.5444 2 13.0288V26.8755C2 28.3599 2.80517 29.7347 4.10879 30.4742L16.2631 37.3976C17.5667 38.137 19.1715 38.137 20.4752 37.3976L32.6294 30.4742C33.9331 29.7347 34.7328 28.3599 34.7328 26.8755Z" stroke="#04093F" stroke-width="3" stroke-miterlimit="10" stroke-linecap="round" stroke-linejoin="round"/>
<path d="M18.3667 15.0439C21.078 15.0439 23.2744 17.2404 23.2744 19.9517C23.2744 22.663 21.078 24.8594 18.3667 24.8594C15.6554 24.8594 13.459 22.663 13.459 19.9517C13.459 17.2404 15.6554 15.0439 18.3667 15.0439Z" stroke="#04093F" stroke-width="3" stroke-miterlimit="10" stroke-linecap="round" stroke-linejoin="round"/>
</svg>
