<svg width="21" height="21" viewBox="0 0 21 21" fill="none" xmlns="http://www.w3.org/2000/svg">
<path d="M12.4535 19H4.27344" stroke="#82849F" stroke-width="2" stroke-miterlimit="10" stroke-linecap="round" stroke-linejoin="round"/>
<path d="M17.3621 1H7.53396C5.7326 1 4.27344 2.45938 4.27344 4.26102V14.9093" stroke="#82849F" stroke-width="2" stroke-miterlimit="10" stroke-linecap="round" stroke-linejoin="round"/>
<path d="M15.7266 2.6377V4.27231V12.4536V14.9096V15.7283" stroke="#82849F" stroke-width="2" stroke-miterlimit="10" stroke-linecap="round" stroke-linejoin="round"/>
<path d="M1 14.9092V15.7279C1 17.535 2.46463 18.9998 4.27421 18.9998" stroke="#82849F" stroke-width="2" stroke-miterlimit="10" stroke-linecap="round" stroke-linejoin="round"/>
<path d="M9.17969 14.9092V15.7278C9.17969 17.5349 10.6471 18.9998 12.4539 18.9998C14.2607 18.9998 15.7254 17.5349 15.7254 15.7278V14.9092V12.4531" stroke="#82849F" stroke-width="2" stroke-miterlimit="10" stroke-linecap="round" stroke-linejoin="round"/>
<path d="M18.998 4.27197H15.7266V2.63735C15.7266 1.7338 16.4602 1 17.3637 1C18.2671 1 19.0008 1.7338 19.0008 2.63735V4.27197H18.998Z" stroke="#82849F" stroke-width="2" stroke-miterlimit="10" stroke-linecap="round" stroke-linejoin="round"/>
<path d="M9.18005 14.9092H7.54568H4.27421H1" stroke="#82849F" stroke-width="2" stroke-miterlimit="10" stroke-linecap="round" stroke-linejoin="round"/>
<path d="M12.4535 19H4.27344" stroke="#82849F" stroke-width="2" stroke-miterlimit="10" stroke-linecap="round" stroke-linejoin="round"/>
<path d="M7.95312 4.68262H12.0432" stroke="#82849F" stroke-width="2" stroke-miterlimit="10" stroke-linecap="round" stroke-linejoin="round"/>
<path d="M7.95312 7.9541H12.0432" stroke="#82849F" stroke-width="2" stroke-miterlimit="10" stroke-linecap="round" stroke-linejoin="round"/>
<path d="M7.95312 11.2266H11.022" stroke="#82849F" stroke-width="2" stroke-miterlimit="10" stroke-linecap="round" stroke-linejoin="round"/>
</svg>
