<svg width="17" height="26" viewBox="0 0 17 26" fill="none" xmlns="http://www.w3.org/2000/svg">
<path d="M2.90691 0H13.9409C15.5437 0 16.8477 1.304 16.8477 2.90675V23.0933C16.8477 24.696 15.5437 26 13.9409 26H2.90703C1.30428 26 0.00028038 24.696 0.00028038 23.0933V2.90675C0.000154495 1.304 1.30416 0 2.90691 0ZM14.9727 5.31275H1.87516V7.0755H14.9727V5.31275ZM13.9409 1.875H2.90703C2.33816 1.875 1.87528 2.33787 1.87528 2.90675V3.43788H14.9727V2.90675C14.9727 2.33787 14.5098 1.875 13.9409 1.875ZM2.90691 24.125H13.9409C14.5098 24.125 14.9727 23.6621 14.9727 23.0933V8.9505H1.87516V23.0933C1.87516 23.6621 2.33803 24.125 2.90691 24.125Z" fill="#82849F"/>
<path d="M3.75262 11.4746H5.82812V13.5501H3.75262V11.4746Z" fill="#82849F"/>
<path d="M7.38544 11.4746H9.46094V13.5501H7.38544V11.4746Z" fill="#82849F"/>
<path d="M11.0202 11.4746H13.0957V13.5501H11.0202V11.4746Z" fill="#82849F"/>
<path d="M3.75262 15.5996H5.82812V17.6751H3.75262V15.5996Z" fill="#82849F"/>
<path d="M7.38544 15.5996H9.46094V17.6751H7.38544V15.5996Z" fill="#82849F"/>
<path d="M11.0202 15.5996H13.0957V17.6751H11.0202V15.5996Z" fill="#82849F"/>
<path d="M3.75262 19.7246H5.82812V21.8001H3.75262V19.7246Z" fill="#82849F"/>
<path d="M7.38544 19.7246H9.46094V21.8001H7.38544V19.7246Z" fill="#82849F"/>
<path d="M11.0202 19.7246H13.0957V21.8001H11.0202V19.7246Z" fill="#82849F"/>
</svg>
