<svg width="15" height="18" viewBox="0 0 15 18" fill="none" xmlns="http://www.w3.org/2000/svg">
<path fill-rule="evenodd" clip-rule="evenodd" d="M6.93333 16.4667L6.93333 1.53333C6.93333 1.23893 7.17227 1 7.46667 1C7.76107 1 8 1.23893 8 1.53333L8 16.4667C8 16.7611 7.76107 17 7.46667 17C7.17227 17 6.93333 16.7611 6.93333 16.4667" fill="#82849F"/>
<path d="M6.93333 16.4667L6.93333 1.53333C6.93333 1.23893 7.17227 1 7.46667 1C7.76107 1 8 1.23893 8 1.53333L8 16.4667C8 16.7611 7.76107 17 7.46667 17C7.17227 17 6.93333 16.7611 6.93333 16.4667" stroke="#82849F" stroke-width="0.3"/>
<path fill-rule="evenodd" clip-rule="evenodd" d="M9.20356 15.1371C9.20356 14.8427 9.44249 14.6038 9.73689 14.6038L10.8135 14.6038C11.9819 14.6038 12.9333 13.6523 12.9333 12.4825L12.9333 11.6256C12.9333 11.3312 13.1723 11.0923 13.4667 11.0923C13.7611 11.0923 14 11.3312 14 11.6256L14 12.4825C14 14.2404 12.57 15.6704 10.8135 15.6704L9.73689 15.6704C9.44249 15.6704 9.20356 15.4315 9.20356 15.1371" fill="#82849F"/>
<path d="M9.20356 15.1371C9.20356 14.8427 9.44249 14.6038 9.73689 14.6038L10.8135 14.6038C11.9819 14.6038 12.9333 13.6523 12.9333 12.4825L12.9333 11.6256C12.9333 11.3312 13.1723 11.0923 13.4667 11.0923C13.7611 11.0923 14 11.3312 14 11.6256L14 12.4825C14 14.2404 12.57 15.6704 10.8135 15.6704L9.73689 15.6704C9.44249 15.6704 9.20356 15.4315 9.20356 15.1371" stroke="#82849F" stroke-width="0.3"/>
<path fill-rule="evenodd" clip-rule="evenodd" d="M4.99957 2.8634C4.99957 3.1578 4.76064 3.39674 4.46624 3.39674L3.38961 3.39674C2.22126 3.39674 1.26979 4.3482 1.26979 5.51798L1.26979 6.37487C1.26979 6.66927 1.03086 6.9082 0.736458 6.9082C0.442058 6.9082 0.203125 6.66927 0.203125 6.37487L0.203125 5.51798C0.203125 3.76011 1.63317 2.33007 3.38961 2.33007L4.46624 2.33007C4.76064 2.33007 4.99957 2.569 4.99957 2.8634" fill="#82849F"/>
<path d="M4.99957 2.8634C4.99957 3.1578 4.76064 3.39674 4.46624 3.39674L3.38961 3.39674C2.22126 3.39674 1.26979 4.3482 1.26979 5.51798L1.26979 6.37487C1.26979 6.66927 1.03086 6.9082 0.736458 6.9082C0.442058 6.9082 0.203125 6.66927 0.203125 6.37487L0.203125 5.51798C0.203125 3.76011 1.63317 2.33007 3.38961 2.33007L4.46624 2.33007C4.76064 2.33007 4.99957 2.569 4.99957 2.8634" stroke="#82849F" stroke-width="0.3"/>
<path fill-rule="evenodd" clip-rule="evenodd" d="M9.20356 2.86341C9.20356 2.56901 9.44249 2.33008 9.73689 2.33008L10.8135 2.33008C12.57 2.33008 14 3.76012 14 5.51799L14 6.39692C14 6.69132 13.7611 6.93026 13.4667 6.93026C13.1723 6.93026 12.9333 6.69132 12.9333 6.39692L12.9333 5.51799C12.9333 4.34821 11.9819 3.39674 10.8135 3.39674L9.73689 3.39674C9.44249 3.39674 9.20356 3.15781 9.20356 2.86341" fill="#82849F"/>
<path d="M9.20356 2.86341C9.20356 2.56901 9.44249 2.33008 9.73689 2.33008L10.8135 2.33008C12.57 2.33008 14 3.76012 14 5.51799L14 6.39692C14 6.69132 13.7611 6.93026 13.4667 6.93026C13.1723 6.93026 12.9333 6.69132 12.9333 6.39692L12.9333 5.51799C12.9333 4.34821 11.9819 3.39674 10.8135 3.39674L9.73689 3.39674C9.44249 3.39674 9.20356 3.15781 9.20356 2.86341" stroke="#82849F" stroke-width="0.3"/>
<path fill-rule="evenodd" clip-rule="evenodd" d="M4.99957 15.1376C4.99957 15.432 4.76064 15.6709 4.46624 15.6709L3.38961 15.6709C1.63317 15.6709 0.203125 14.2409 0.203125 12.483L0.203126 11.6041C0.203126 11.3097 0.442059 11.0707 0.736459 11.0707C1.03086 11.0707 1.26979 11.3097 1.26979 11.6041L1.26979 12.483C1.26979 13.6528 2.22126 14.6042 3.38961 14.6042L4.46624 14.6042C4.76064 14.6042 4.99957 14.8432 4.99957 15.1376" fill="#82849F"/>
<path d="M4.99957 15.1376C4.99957 15.432 4.76064 15.6709 4.46624 15.6709L3.38961 15.6709C1.63317 15.6709 0.203125 14.2409 0.203125 12.483L0.203126 11.6041C0.203126 11.3097 0.442059 11.0707 0.736459 11.0707C1.03086 11.0707 1.26979 11.3097 1.26979 11.6041L1.26979 12.483C1.26979 13.6528 2.22126 14.6042 3.38961 14.6042L4.46624 14.6042C4.76064 14.6042 4.99957 14.8432 4.99957 15.1376" stroke="#82849F" stroke-width="0.3"/>
</svg>
