<svg width="22" height="22" viewBox="0 0 22 22" fill="none" xmlns="http://www.w3.org/2000/svg">
<path d="M19.18 10.3872V16.2436C19.18 18.0294 18.021 19.4776 16.5943 19.4776H5.40598C3.97626 19.4776 2.82031 18.0294 2.82031 16.2436V10.3872" stroke="#82849F" stroke-width="2" stroke-miterlimit="10" stroke-linecap="round" stroke-linejoin="round"/>
<path d="M4.25364 10.3868C1.95391 10.3868 0.381221 8.3758 1.23601 6.52609L2.9608 2.79928C3.38364 1.88355 4.29927 1.29639 5.3092 1.29639H8.37854L7.48116 7.9012C7.28951 9.31891 5.90238 10.3868 4.25364 10.3868Z" stroke="#82849F" stroke-width="2" stroke-miterlimit="10" stroke-linecap="round" stroke-linejoin="round"/>
<path d="M10.9947 10.3868C8.94447 10.3868 7.35656 8.83823 7.59384 7.07674L8.37562 1.29639H13.626L14.3957 7.08282C14.6299 8.84127 13.042 10.3868 10.9947 10.3868Z" stroke="#82849F" stroke-width="2" stroke-miterlimit="10" stroke-linecap="round" stroke-linejoin="round"/>
<path d="M17.7469 10.3868C16.0981 10.3868 14.711 9.31891 14.5193 7.9012L13.625 1.29639H16.6943C17.7043 1.29639 18.6199 1.88355 19.0427 2.79928L20.7645 6.52913C21.6162 8.3758 20.0435 10.3868 17.7469 10.3868Z" stroke="#82849F" stroke-width="2" stroke-miterlimit="10" stroke-linecap="round" stroke-linejoin="round"/>
</svg>
